<?xml version="1.0" encoding="UTF-8"?> <svg xmlns="http://www.w3.org/2000/svg" id="Layer_1" data-name="Layer 1" viewBox="0 0 80 78"><title>icsArtboard 1 copy 2</title><path d="M62,24C62,13,52,4,41,4S20,13,20,24a20,20,0,0,0,3,11h0L40,63,58,34h0A20,20,0,0,0,62,24Z" style="fill: none;stroke: #ffa60d;stroke-linejoin: round;stroke-width: 2px"></path><path d="M47,52c11,1,19,5,19,10S54,73,40,73,15,68,15,63s8-9,19-10" style="fill: none;stroke: #ffa60d;stroke-linejoin: round;stroke-width: 2px"></path><g><polyline points="50 34 40 13 31 34" style="fill: none;stroke: #ffa60d;stroke-linejoin: round;stroke-width: 2px"></polyline><line x1="35" y1="25" x2="46" y2="25" style="fill: none;stroke: #ffa60d;stroke-linejoin: round;stroke-width: 2px"></line></g></svg> 