<?xml version="1.0" encoding="UTF-8"?> <svg xmlns="http://www.w3.org/2000/svg" id="Layer_1" data-name="Layer 1" viewBox="0 0 80 78"><title>icsArtboard 1 copy</title><polyline points="14 17 22 11 30 23 21 29" style="fill: none;stroke: #ffa60d;stroke-miterlimit: 10;stroke-width: 2px"></polyline><path d="M21,29h0a7,7,0,0,0-2,10L30,57a8,8,0,0,0,10,2l8-5,7,12-8,5c-10,6-23-3-33-17S4,23,14,17" style="fill: none;stroke: #ffa60d;stroke-miterlimit: 10;stroke-width: 2px"></path><path d="M39,23A15,15,0,0,1,53,43" style="fill: none;stroke: #ffa60d;stroke-miterlimit: 10;stroke-width: 2px"></path><path d="M41,14A25,25,0,0,1,62,45" style="fill: none;stroke: #ffa60d;stroke-miterlimit: 10;stroke-width: 2px"></path><path d="M43,5A34,34,0,0,1,71,47" style="fill: none;stroke: #ffa60d;stroke-miterlimit: 10;stroke-width: 2px"></path></svg> 